<?xml version="1.0" encoding="UTF-8" standalone="no"?>
<!-- Created with Inkscape (http://www.inkscape.org/) -->

<svg
   version="1.1"
   id="svg1"
   width="21.061199cm"
   height="10.0042cm"
   viewBox="0 0 796.01382 378.11148"
   sodipodi:docname="ta-logo.svg"
   inkscape:version="1.3.2 (091e20e, 2023-11-25, custom)"
   xml:space="preserve"
   xmlns:inkscape="http://www.inkscape.org/namespaces/inkscape"
   xmlns:sodipodi="http://sodipodi.sourceforge.net/DTD/sodipodi-0.dtd"
   xmlns="http://www.w3.org/2000/svg"
   xmlns:svg="http://www.w3.org/2000/svg"><defs
     id="defs1" /><sodipodi:namedview
     id="namedview1"
     pagecolor="#ffffff"
     bordercolor="#000000"
     borderopacity="0.25"
     inkscape:showpageshadow="2"
     inkscape:pageopacity="0.0"
     inkscape:pagecheckerboard="0"
     inkscape:deskcolor="#d1d1d1"
     showgrid="false"
     inkscape:zoom="0.70710678"
     inkscape:cx="412.95036"
     inkscape:cy="262.33661"
     inkscape:window-width="1360"
     inkscape:window-height="745"
     inkscape:window-x="-8"
     inkscape:window-y="-8"
     inkscape:window-maximized="1"
     inkscape:current-layer="g1"
     inkscape:document-units="mm"
     inkscape:lockguides="true" /><g
     inkscape:groupmode="layer"
     inkscape:label="Image"
     id="g1"><path
       style="fill:#00aa9f;fill-opacity:1;fill-rule:evenodd;stroke-width:20.2009"
       d="m 735.71275,279.27259 c -98.49058,0.2017 -196.98117,0.40339 -295.47175,0.60509 -17.30504,26.94862 -34.61009,53.89723 -51.91513,80.84585 135.00621,-0.0341 270.01241,-0.0683 405.01862,-0.10246 -19.21058,-27.11616 -38.42116,-54.23232 -57.63174,-81.34848 z"
       id="path79174" /><path
       style="fill:#0e0b62;fill-opacity:1;fill-rule:evenodd;stroke-width:20.5791"
       d="m 287.94197,279.41588 c -18.19113,27.18716 -36.38225,54.37432 -54.57338,81.56148 42.31143,-0.0284 84.62285,-0.0569 126.93428,-0.0853 17.82168,-27.07088 35.64336,-54.14176 53.46504,-81.21264 -41.94198,-0.0879 -83.88396,-0.17569 -125.82594,-0.26354 z"
       id="path79177" /><path
       style="fill:#2d3290;fill-opacity:1;fill-rule:evenodd;stroke-width:20.2009"
       d="M 282.90118,107.55436 H 171.47232 c -0.20761,84.29876 -0.38396,169.06628 -0.59157,253.36504 11.03691,0.13219 21.25646,0.17862 32.46867,-0.10568 26.49839,-38.44292 53.60033,-78.66616 80.09872,-117.10908 z"
       id="path79178"
       sodipodi:nodetypes="cccccc" /><path
       style="fill:#642d92;fill-opacity:1;fill-rule:evenodd;stroke-width:20.2009"
       d="m 171.55037,107.90676 c 68.64557,0 137.29114,0 205.93671,0 21.10576,-30.237892 42.21151,-60.475784 63.31727,-90.713676 -67.37198,0 -134.74397,0 -202.11595,0 -22.37934,30.237892 -44.75869,60.475784 -67.13803,90.713676 z"
       id="path79179" /><path
       style="fill:#932591;fill-opacity:1;fill-rule:evenodd;stroke-width:20.2009"
       d="m 238.79859,17.193084 c -22.40536,30.344339 -44.81072,60.688677 -67.21608,91.033016 -55.75406,0 -111.508124,0 -167.2621862,0 C 28.948595,77.9159 53.576865,47.605701 78.205136,17.295501 131.73629,17.261362 185.26744,17.227223 238.79859,17.193084 Z"
       id="path79180" /><path
       style="fill:#2ba8de;fill-opacity:1;fill-rule:evenodd;stroke-width:0.00390625"
       d=""
       id="path28" /><path
       id="path79175"
       style="fill:#2ba8de;fill-opacity:1;fill-rule:evenodd;stroke-width:7.03861"
       d="m 179.8871,8.0863862 c -2.99818,1.1396876 -0.20591,7.2193448 -0.94697,10.3640888 0.1448,10.827292 0.20598,21.686473 0.35078,32.513765 l 33.9497,49.20805 43.55077,-0.0837 C 237.45142,72.546629 218.35092,44.788041 198.81803,17.398396 194.24338,11.494191 187.19921,8.4404019 179.8871,8.0863862 Z"
       sodipodi:nodetypes="ccccccc"
       transform="matrix(2.8915604,0,0,2.8486152,-6.8063328,-5.8310388)" /><path
       id="path43-3"
       style="fill:#0c6ec3;fill-opacity:1;fill-rule:evenodd;stroke-width:1.00084"
       d="m 179.9399,8.0620143 c -9.586,-0.2478255 -18.14697,5.6428147 -23.19155,13.5317857 -18.26739,26.174543 -36.53478,52.349085 -54.80217,78.52363 14.51692,0.0279 29.03385,0.0558 43.55077,0.0837 11.28869,-16.413313 22.57738,-32.826624 33.86607,-49.239935 0.18952,-14.301605 0.37356,-28.601083 0.57688,-42.8991807 z"
       transform="matrix(2.8915604,0,0,2.8486152,-6.9731025,-5.7604985)"
       inkscape:label="path43-3" /></g></svg>
